<mxfile host="app.diagrams.net" modified="2021-10-29T22:42:50.132Z" agent="5.0 (Macintosh; Intel Mac OS X 10_15_7) AppleWebKit/605.1.15 (KHTML, like Gecko) Version/15.0 Safari/605.1.15" etag="vVvcawqWkKNQwQJtCHW5" version="15.6.2" type="github">
  <diagram id="HW_-FHFeisV-_A8_rnzQ" name="Page-1">
    <mxGraphModel dx="870" dy="542" grid="1" gridSize="10" guides="1" tooltips="1" connect="1" arrows="1" fold="1" page="1" pageScale="1" pageWidth="850" pageHeight="1100" math="0" shadow="0">
      <root>
        <mxCell id="0" />
        <mxCell id="1" parent="0" />
        <mxCell id="yDKdm8NmQ3EYVEp2FuNf-1" value="" style="whiteSpace=wrap;html=1;aspect=fixed;" vertex="1" parent="1">
          <mxGeometry x="200" y="10" width="440" height="440" as="geometry" />
        </mxCell>
        <mxCell id="yDKdm8NmQ3EYVEp2FuNf-2" value="&lt;font style=&quot;font-size: 18px&quot;&gt;Student Library Renting System&lt;/font&gt;" style="rounded=0;whiteSpace=wrap;html=1;" vertex="1" parent="1">
          <mxGeometry x="210" y="60" width="420" height="60" as="geometry" />
        </mxCell>
        <mxCell id="yDKdm8NmQ3EYVEp2FuNf-9" value="&lt;span style=&quot;white-space: pre&quot;&gt;Login	&lt;span style=&quot;white-space: pre&quot;&gt;	&lt;span style=&quot;white-space: pre&quot;&gt;	&lt;span style=&quot;white-space: pre&quot;&gt;	&lt;span style=&quot;white-space: pre&quot;&gt;	&lt;span style=&quot;white-space: pre&quot;&gt;	&lt;span style=&quot;white-space: pre&quot;&gt;	&lt;span style=&quot;white-space: pre&quot;&gt;	&lt;span style=&quot;white-space: pre&quot;&gt;&lt;span style=&quot;white-space: pre&quot;&gt;	&lt;b&gt;X&lt;/b&gt;&lt;/span&gt;&lt;/span&gt;&lt;/span&gt;&lt;/span&gt;&lt;/span&gt;&lt;/span&gt;&lt;/span&gt;&lt;/span&gt;&lt;/span&gt;&lt;/span&gt;" style="rounded=0;whiteSpace=wrap;html=1;fontSize=18;" vertex="1" parent="1">
          <mxGeometry x="210" y="20" width="420" height="30" as="geometry" />
        </mxCell>
        <mxCell id="yDKdm8NmQ3EYVEp2FuNf-10" value="Login" style="rounded=0;whiteSpace=wrap;html=1;fontSize=18;" vertex="1" parent="1">
          <mxGeometry x="380" y="270" width="120" height="30" as="geometry" />
        </mxCell>
        <mxCell id="yDKdm8NmQ3EYVEp2FuNf-11" value="" style="rounded=0;whiteSpace=wrap;html=1;fontSize=18;" vertex="1" parent="1">
          <mxGeometry x="320" y="220" width="250" height="30" as="geometry" />
        </mxCell>
        <mxCell id="yDKdm8NmQ3EYVEp2FuNf-12" value="" style="rounded=0;whiteSpace=wrap;html=1;fontSize=18;" vertex="1" parent="1">
          <mxGeometry x="320" y="170" width="250" height="30" as="geometry" />
        </mxCell>
        <mxCell id="yDKdm8NmQ3EYVEp2FuNf-14" value="Username" style="text;html=1;strokeColor=none;fillColor=none;align=center;verticalAlign=middle;whiteSpace=wrap;rounded=0;fontSize=18;" vertex="1" parent="1">
          <mxGeometry x="230" y="170" width="60" height="30" as="geometry" />
        </mxCell>
        <mxCell id="yDKdm8NmQ3EYVEp2FuNf-15" value="Password" style="text;html=1;strokeColor=none;fillColor=none;align=center;verticalAlign=middle;whiteSpace=wrap;rounded=0;fontSize=18;" vertex="1" parent="1">
          <mxGeometry x="230" y="220" width="60" height="30" as="geometry" />
        </mxCell>
        <mxCell id="yDKdm8NmQ3EYVEp2FuNf-17" value="OR" style="text;html=1;strokeColor=none;fillColor=none;align=center;verticalAlign=middle;whiteSpace=wrap;rounded=0;fontSize=18;" vertex="1" parent="1">
          <mxGeometry x="410" y="310" width="60" height="30" as="geometry" />
        </mxCell>
        <mxCell id="yDKdm8NmQ3EYVEp2FuNf-18" value="Sign Up" style="rounded=0;whiteSpace=wrap;html=1;fontSize=18;" vertex="1" parent="1">
          <mxGeometry x="380" y="340" width="120" height="30" as="geometry" />
        </mxCell>
        <mxCell id="yDKdm8NmQ3EYVEp2FuNf-19" value="" style="whiteSpace=wrap;html=1;aspect=fixed;fontSize=18;" vertex="1" parent="1">
          <mxGeometry x="200" y="500" width="390" height="390" as="geometry" />
        </mxCell>
        <mxCell id="yDKdm8NmQ3EYVEp2FuNf-20" value="&lt;b style=&quot;font-size: 11px&quot;&gt;New Student&lt;/b&gt;&lt;span style=&quot;white-space: pre&quot;&gt;&lt;b style=&quot;font-size: 11px&quot;&gt;	&lt;/b&gt;&lt;span style=&quot;white-space: pre&quot;&gt;&lt;b style=&quot;font-size: 11px&quot;&gt;	&lt;/b&gt;&lt;span style=&quot;white-space: pre&quot;&gt;&lt;b style=&quot;font-size: 11px&quot;&gt;	&lt;/b&gt;&lt;span style=&quot;white-space: pre&quot;&gt;&lt;b style=&quot;font-size: 11px&quot;&gt;	&lt;/b&gt;&lt;span style=&quot;white-space: pre&quot;&gt;&lt;b style=&quot;font-size: 11px&quot;&gt;	&lt;/b&gt;&lt;span style=&quot;white-space: pre&quot;&gt;&lt;b style=&quot;font-size: 11px&quot;&gt;	&lt;/b&gt;&lt;span style=&quot;white-space: pre&quot;&gt;&lt;b style=&quot;font-size: 11px&quot;&gt;	&lt;/b&gt;&lt;span style=&quot;white-space: pre&quot;&gt;&lt;b style=&quot;font-size: 11px&quot;&gt;	&lt;/b&gt;&lt;span style=&quot;white-space: pre&quot;&gt;&lt;b style=&quot;font-size: 11px&quot;&gt;	&lt;/b&gt;&lt;span style=&quot;white-space: pre&quot;&gt;&lt;b style=&quot;font-size: 11px&quot;&gt;	&lt;/b&gt;&lt;span style=&quot;white-space: pre&quot;&gt;&lt;b&gt;&lt;span style=&quot;font-size: 11px&quot;&gt;	&lt;/span&gt;&lt;font style=&quot;font-size: 18px&quot;&gt;X&lt;/font&gt;&lt;/b&gt;&lt;/span&gt;&lt;/span&gt;&lt;/span&gt;&lt;/span&gt;&lt;/span&gt;&lt;/span&gt;&lt;/span&gt;&lt;/span&gt;&lt;/span&gt;&lt;/span&gt;&lt;/span&gt;" style="rounded=0;whiteSpace=wrap;html=1;fontSize=18;" vertex="1" parent="1">
          <mxGeometry x="220" y="510" width="350" height="30" as="geometry" />
        </mxCell>
        <mxCell id="yDKdm8NmQ3EYVEp2FuNf-21" value="&lt;font style=&quot;font-size: 18px&quot;&gt;Username&lt;/font&gt;" style="text;html=1;strokeColor=none;fillColor=none;align=center;verticalAlign=middle;whiteSpace=wrap;rounded=0;fontSize=14;" vertex="1" parent="1">
          <mxGeometry x="220" y="590" width="60" height="30" as="geometry" />
        </mxCell>
        <mxCell id="yDKdm8NmQ3EYVEp2FuNf-22" value="&lt;font style=&quot;font-size: 18px&quot;&gt;Password&lt;/font&gt;" style="text;html=1;strokeColor=none;fillColor=none;align=center;verticalAlign=middle;whiteSpace=wrap;rounded=0;fontSize=14;" vertex="1" parent="1">
          <mxGeometry x="220" y="650" width="60" height="30" as="geometry" />
        </mxCell>
        <mxCell id="yDKdm8NmQ3EYVEp2FuNf-24" value="" style="rounded=0;whiteSpace=wrap;html=1;fontSize=18;" vertex="1" parent="1">
          <mxGeometry x="305" y="590" width="270" height="35" as="geometry" />
        </mxCell>
        <mxCell id="yDKdm8NmQ3EYVEp2FuNf-25" value="" style="rounded=0;whiteSpace=wrap;html=1;fontSize=18;" vertex="1" parent="1">
          <mxGeometry x="305" y="645" width="270" height="35" as="geometry" />
        </mxCell>
        <mxCell id="yDKdm8NmQ3EYVEp2FuNf-27" value="&lt;font style=&quot;font-size: 18px&quot;&gt;Year&lt;/font&gt;" style="text;html=1;strokeColor=none;fillColor=none;align=center;verticalAlign=middle;whiteSpace=wrap;rounded=0;fontSize=14;" vertex="1" parent="1">
          <mxGeometry x="220" y="710" width="60" height="30" as="geometry" />
        </mxCell>
        <mxCell id="yDKdm8NmQ3EYVEp2FuNf-28" value="" style="rounded=0;whiteSpace=wrap;html=1;fontSize=18;" vertex="1" parent="1">
          <mxGeometry x="305" y="705" width="270" height="35" as="geometry" />
        </mxCell>
        <mxCell id="yDKdm8NmQ3EYVEp2FuNf-29" value="Register" style="rounded=0;whiteSpace=wrap;html=1;fontSize=18;" vertex="1" parent="1">
          <mxGeometry x="350" y="770" width="120" height="40" as="geometry" />
        </mxCell>
        <mxCell id="yDKdm8NmQ3EYVEp2FuNf-30" value="" style="whiteSpace=wrap;html=1;aspect=fixed;fontSize=18;" vertex="1" parent="1">
          <mxGeometry x="200" y="960" width="400" height="400" as="geometry" />
        </mxCell>
        <mxCell id="yDKdm8NmQ3EYVEp2FuNf-31" value="Main Menu&amp;nbsp;&lt;span style=&quot;white-space: pre&quot;&gt;	&lt;span style=&quot;white-space: pre&quot;&gt;	&lt;span style=&quot;white-space: pre&quot;&gt;	&lt;span style=&quot;white-space: pre&quot;&gt;	&lt;span style=&quot;white-space: pre&quot;&gt;	&lt;span style=&quot;white-space: pre&quot;&gt;	&lt;span style=&quot;white-space: pre&quot;&gt;	&lt;b&gt;X&lt;/b&gt;&lt;/span&gt;&lt;/span&gt;&lt;/span&gt;&lt;/span&gt;&lt;/span&gt;&lt;/span&gt;&lt;/span&gt;" style="rounded=0;whiteSpace=wrap;html=1;fontSize=18;" vertex="1" parent="1">
          <mxGeometry x="210" y="970" width="380" height="30" as="geometry" />
        </mxCell>
        <mxCell id="yDKdm8NmQ3EYVEp2FuNf-32" value="My Activity" style="rounded=0;whiteSpace=wrap;html=1;fontSize=18;" vertex="1" parent="1">
          <mxGeometry x="250" y="1100" width="120" height="60" as="geometry" />
        </mxCell>
        <mxCell id="yDKdm8NmQ3EYVEp2FuNf-33" value="Return a Book" style="rounded=0;whiteSpace=wrap;html=1;fontSize=18;" vertex="1" parent="1">
          <mxGeometry x="425" y="1220" width="120" height="60" as="geometry" />
        </mxCell>
        <mxCell id="yDKdm8NmQ3EYVEp2FuNf-34" value="Add a New Book" style="rounded=0;whiteSpace=wrap;html=1;fontSize=18;" vertex="1" parent="1">
          <mxGeometry x="250" y="1220" width="120" height="60" as="geometry" />
        </mxCell>
        <mxCell id="yDKdm8NmQ3EYVEp2FuNf-35" value="Available Books" style="rounded=0;whiteSpace=wrap;html=1;fontSize=18;" vertex="1" parent="1">
          <mxGeometry x="425" y="1100" width="120" height="60" as="geometry" />
        </mxCell>
        <mxCell id="yDKdm8NmQ3EYVEp2FuNf-36" value="Library Management System" style="rounded=0;whiteSpace=wrap;html=1;fontSize=18;" vertex="1" parent="1">
          <mxGeometry x="210" y="1010" width="380" height="60" as="geometry" />
        </mxCell>
        <mxCell id="yDKdm8NmQ3EYVEp2FuNf-37" value="" style="whiteSpace=wrap;html=1;aspect=fixed;fontSize=18;" vertex="1" parent="1">
          <mxGeometry x="190" y="1380" width="400" height="400" as="geometry" />
        </mxCell>
        <mxCell id="yDKdm8NmQ3EYVEp2FuNf-38" value="User Activity&lt;span style=&quot;white-space: pre&quot;&gt;	&lt;span style=&quot;white-space: pre&quot;&gt;	&lt;span style=&quot;white-space: pre&quot;&gt;	&lt;span style=&quot;white-space: pre&quot;&gt;	&lt;span style=&quot;white-space: pre&quot;&gt;	&lt;span style=&quot;white-space: pre&quot;&gt;	&lt;span style=&quot;white-space: pre&quot;&gt;	&lt;b&gt;X&lt;/b&gt;&lt;/span&gt;&lt;/span&gt;&lt;/span&gt;&lt;/span&gt;&lt;/span&gt;&lt;/span&gt;&lt;/span&gt;" style="rounded=0;whiteSpace=wrap;html=1;fontSize=18;" vertex="1" parent="1">
          <mxGeometry x="200" y="1390" width="380" height="30" as="geometry" />
        </mxCell>
        <mxCell id="yDKdm8NmQ3EYVEp2FuNf-40" value="Books Added" style="text;html=1;strokeColor=none;fillColor=none;align=center;verticalAlign=middle;whiteSpace=wrap;rounded=0;fontSize=18;" vertex="1" parent="1">
          <mxGeometry x="195" y="1590" width="130" height="30" as="geometry" />
        </mxCell>
        <mxCell id="yDKdm8NmQ3EYVEp2FuNf-41" value="Books Rented" style="text;html=1;strokeColor=none;fillColor=none;align=center;verticalAlign=middle;whiteSpace=wrap;rounded=0;fontSize=18;" vertex="1" parent="1">
          <mxGeometry x="200" y="1510" width="130" height="30" as="geometry" />
        </mxCell>
        <mxCell id="yDKdm8NmQ3EYVEp2FuNf-42" value="Account Status" style="text;html=1;strokeColor=none;fillColor=none;align=center;verticalAlign=middle;whiteSpace=wrap;rounded=0;fontSize=18;" vertex="1" parent="1">
          <mxGeometry x="200" y="1460" width="130" height="30" as="geometry" />
        </mxCell>
        <mxCell id="yDKdm8NmQ3EYVEp2FuNf-43" value="" style="rounded=0;whiteSpace=wrap;html=1;fontSize=18;" vertex="1" parent="1">
          <mxGeometry x="360" y="1510" width="180" height="50" as="geometry" />
        </mxCell>
        <mxCell id="yDKdm8NmQ3EYVEp2FuNf-44" value="" style="rounded=0;whiteSpace=wrap;html=1;fontSize=18;" vertex="1" parent="1">
          <mxGeometry x="360" y="1590" width="180" height="60" as="geometry" />
        </mxCell>
        <mxCell id="yDKdm8NmQ3EYVEp2FuNf-45" value="" style="rounded=0;whiteSpace=wrap;html=1;fontSize=18;" vertex="1" parent="1">
          <mxGeometry x="360" y="1460" width="180" height="30" as="geometry" />
        </mxCell>
        <mxCell id="yDKdm8NmQ3EYVEp2FuNf-47" value="Back" style="rounded=0;whiteSpace=wrap;html=1;fontSize=18;" vertex="1" parent="1">
          <mxGeometry x="510" y="1730" width="60" height="40" as="geometry" />
        </mxCell>
        <mxCell id="yDKdm8NmQ3EYVEp2FuNf-48" value="" style="whiteSpace=wrap;html=1;aspect=fixed;fontSize=18;" vertex="1" parent="1">
          <mxGeometry x="185" y="1840" width="410" height="410" as="geometry" />
        </mxCell>
        <mxCell id="yDKdm8NmQ3EYVEp2FuNf-49" value="Add New Book&lt;span style=&quot;white-space: pre&quot;&gt;	&lt;span style=&quot;white-space: pre&quot;&gt;	&lt;span style=&quot;white-space: pre&quot;&gt;	&lt;span style=&quot;white-space: pre&quot;&gt;	&lt;span style=&quot;white-space: pre&quot;&gt;	&lt;span style=&quot;white-space: pre&quot;&gt;	&lt;b&gt;X&lt;/b&gt;&lt;/span&gt;&lt;/span&gt;&lt;/span&gt;&lt;/span&gt;&lt;/span&gt;&lt;/span&gt;" style="rounded=0;whiteSpace=wrap;html=1;fontSize=18;" vertex="1" parent="1">
          <mxGeometry x="200" y="1850" width="380" height="30" as="geometry" />
        </mxCell>
        <mxCell id="yDKdm8NmQ3EYVEp2FuNf-50" value="Book Details" style="rounded=0;whiteSpace=wrap;html=1;fontSize=18;" vertex="1" parent="1">
          <mxGeometry x="285" y="1890" width="210" height="20" as="geometry" />
        </mxCell>
        <mxCell id="yDKdm8NmQ3EYVEp2FuNf-52" value="&lt;font style=&quot;font-size: 18px&quot;&gt;NumberOfPages&lt;/font&gt;&lt;font style=&quot;font-size: 12px&quot;&gt;:&lt;/font&gt;" style="text;html=1;strokeColor=none;fillColor=none;align=center;verticalAlign=middle;whiteSpace=wrap;rounded=0;fontSize=18;" vertex="1" parent="1">
          <mxGeometry x="230" y="2120" width="60" height="30" as="geometry" />
        </mxCell>
        <mxCell id="yDKdm8NmQ3EYVEp2FuNf-53" value="Publisher:" style="text;html=1;strokeColor=none;fillColor=none;align=center;verticalAlign=middle;whiteSpace=wrap;rounded=0;fontSize=18;" vertex="1" parent="1">
          <mxGeometry x="200" y="2080" width="60" height="30" as="geometry" />
        </mxCell>
        <mxCell id="yDKdm8NmQ3EYVEp2FuNf-54" value="Subject:" style="text;html=1;strokeColor=none;fillColor=none;align=center;verticalAlign=middle;whiteSpace=wrap;rounded=0;fontSize=18;" vertex="1" parent="1">
          <mxGeometry x="195" y="2040" width="60" height="30" as="geometry" />
        </mxCell>
        <mxCell id="yDKdm8NmQ3EYVEp2FuNf-55" value="ISBN:" style="text;html=1;strokeColor=none;fillColor=none;align=center;verticalAlign=middle;whiteSpace=wrap;rounded=0;fontSize=18;" vertex="1" parent="1">
          <mxGeometry x="195" y="2000" width="60" height="30" as="geometry" />
        </mxCell>
        <mxCell id="yDKdm8NmQ3EYVEp2FuNf-56" value="Title:" style="text;html=1;strokeColor=none;fillColor=none;align=center;verticalAlign=middle;whiteSpace=wrap;rounded=0;fontSize=18;" vertex="1" parent="1">
          <mxGeometry x="190" y="1960" width="60" height="30" as="geometry" />
        </mxCell>
        <mxCell id="yDKdm8NmQ3EYVEp2FuNf-57" value="" style="rounded=0;whiteSpace=wrap;html=1;fontSize=18;" vertex="1" parent="1">
          <mxGeometry x="275" y="1960" width="300" height="30" as="geometry" />
        </mxCell>
        <mxCell id="yDKdm8NmQ3EYVEp2FuNf-58" value="" style="rounded=0;whiteSpace=wrap;html=1;fontSize=18;" vertex="1" parent="1">
          <mxGeometry x="275" y="2000" width="300" height="30" as="geometry" />
        </mxCell>
        <mxCell id="yDKdm8NmQ3EYVEp2FuNf-59" value="" style="rounded=0;whiteSpace=wrap;html=1;fontSize=18;" vertex="1" parent="1">
          <mxGeometry x="275" y="2040" width="300" height="30" as="geometry" />
        </mxCell>
        <mxCell id="yDKdm8NmQ3EYVEp2FuNf-60" value="" style="rounded=0;whiteSpace=wrap;html=1;fontSize=18;" vertex="1" parent="1">
          <mxGeometry x="275" y="2080" width="300" height="30" as="geometry" />
        </mxCell>
        <mxCell id="yDKdm8NmQ3EYVEp2FuNf-61" value="" style="rounded=0;whiteSpace=wrap;html=1;fontSize=18;" vertex="1" parent="1">
          <mxGeometry x="335" y="2120" width="245" height="30" as="geometry" />
        </mxCell>
        <mxCell id="yDKdm8NmQ3EYVEp2FuNf-62" value="" style="rounded=0;whiteSpace=wrap;html=1;fontSize=18;" vertex="1" parent="1">
          <mxGeometry x="275" y="2160" width="300" height="30" as="geometry" />
        </mxCell>
        <mxCell id="yDKdm8NmQ3EYVEp2FuNf-64" value="Submit" style="rounded=0;whiteSpace=wrap;html=1;fontSize=18;" vertex="1" parent="1">
          <mxGeometry x="325" y="2210" width="120" height="20" as="geometry" />
        </mxCell>
        <mxCell id="yDKdm8NmQ3EYVEp2FuNf-65" value="Price:" style="text;html=1;strokeColor=none;fillColor=none;align=center;verticalAlign=middle;whiteSpace=wrap;rounded=0;fontSize=18;" vertex="1" parent="1">
          <mxGeometry x="200" y="2160" width="60" height="30" as="geometry" />
        </mxCell>
        <mxCell id="yDKdm8NmQ3EYVEp2FuNf-66" value="Username:" style="text;html=1;strokeColor=none;fillColor=none;align=center;verticalAlign=middle;whiteSpace=wrap;rounded=0;fontSize=18;" vertex="1" parent="1">
          <mxGeometry x="210" y="1920" width="60" height="30" as="geometry" />
        </mxCell>
        <mxCell id="yDKdm8NmQ3EYVEp2FuNf-67" value="" style="rounded=0;whiteSpace=wrap;html=1;fontSize=18;" vertex="1" parent="1">
          <mxGeometry x="300" y="1920" width="275" height="30" as="geometry" />
        </mxCell>
        <mxCell id="yDKdm8NmQ3EYVEp2FuNf-68" value="" style="whiteSpace=wrap;html=1;aspect=fixed;fontSize=18;" vertex="1" parent="1">
          <mxGeometry x="190" y="2290" width="410" height="410" as="geometry" />
        </mxCell>
        <mxCell id="yDKdm8NmQ3EYVEp2FuNf-69" value="Return Book&amp;nbsp;&lt;span style=&quot;white-space: pre&quot;&gt;	&lt;span style=&quot;white-space: pre&quot;&gt;	&lt;span style=&quot;white-space: pre&quot;&gt;	&lt;span style=&quot;white-space: pre&quot;&gt;	&lt;span style=&quot;white-space: pre&quot;&gt;	&lt;span style=&quot;white-space: pre&quot;&gt;	&lt;span style=&quot;white-space: pre&quot;&gt;	&lt;b&gt;X&lt;/b&gt;&lt;/span&gt;&lt;/span&gt;&lt;/span&gt;&lt;/span&gt;&lt;/span&gt;&lt;/span&gt;&lt;/span&gt;" style="rounded=0;whiteSpace=wrap;html=1;fontSize=18;" vertex="1" parent="1">
          <mxGeometry x="200" y="2300" width="390" height="30" as="geometry" />
        </mxCell>
        <mxCell id="yDKdm8NmQ3EYVEp2FuNf-70" value="Book Return" style="rounded=0;whiteSpace=wrap;html=1;fontSize=18;" vertex="1" parent="1">
          <mxGeometry x="305" y="2340" width="180" height="30" as="geometry" />
        </mxCell>
        <mxCell id="yDKdm8NmQ3EYVEp2FuNf-71" value="Date Returned" style="text;html=1;strokeColor=none;fillColor=none;align=center;verticalAlign=middle;whiteSpace=wrap;rounded=0;fontSize=18;" vertex="1" parent="1">
          <mxGeometry x="195" y="2550" width="120" height="30" as="geometry" />
        </mxCell>
        <mxCell id="yDKdm8NmQ3EYVEp2FuNf-72" value="Date Rented" style="text;html=1;strokeColor=none;fillColor=none;align=center;verticalAlign=middle;whiteSpace=wrap;rounded=0;fontSize=18;" vertex="1" parent="1">
          <mxGeometry x="195" y="2500" width="110" height="30" as="geometry" />
        </mxCell>
        <mxCell id="yDKdm8NmQ3EYVEp2FuNf-73" value="ISBN" style="text;html=1;strokeColor=none;fillColor=none;align=center;verticalAlign=middle;whiteSpace=wrap;rounded=0;fontSize=18;" vertex="1" parent="1">
          <mxGeometry x="215" y="2450" width="60" height="30" as="geometry" />
        </mxCell>
        <mxCell id="yDKdm8NmQ3EYVEp2FuNf-74" value="Book Title" style="text;html=1;strokeColor=none;fillColor=none;align=center;verticalAlign=middle;whiteSpace=wrap;rounded=0;fontSize=18;" vertex="1" parent="1">
          <mxGeometry x="195" y="2400" width="110" height="30" as="geometry" />
        </mxCell>
        <mxCell id="yDKdm8NmQ3EYVEp2FuNf-75" value="" style="rounded=0;whiteSpace=wrap;html=1;fontSize=18;" vertex="1" parent="1">
          <mxGeometry x="310" y="2400" width="220" height="30" as="geometry" />
        </mxCell>
        <mxCell id="yDKdm8NmQ3EYVEp2FuNf-76" value="" style="rounded=0;whiteSpace=wrap;html=1;fontSize=18;" vertex="1" parent="1">
          <mxGeometry x="310" y="2450" width="220" height="30" as="geometry" />
        </mxCell>
        <mxCell id="yDKdm8NmQ3EYVEp2FuNf-77" value="" style="rounded=0;whiteSpace=wrap;html=1;fontSize=18;" vertex="1" parent="1">
          <mxGeometry x="310" y="2500" width="220" height="30" as="geometry" />
        </mxCell>
        <mxCell id="yDKdm8NmQ3EYVEp2FuNf-78" value="" style="rounded=0;whiteSpace=wrap;html=1;fontSize=18;" vertex="1" parent="1">
          <mxGeometry x="320" y="2550" width="210" height="30" as="geometry" />
        </mxCell>
        <mxCell id="yDKdm8NmQ3EYVEp2FuNf-79" value="Return Book" style="rounded=0;whiteSpace=wrap;html=1;fontSize=18;" vertex="1" parent="1">
          <mxGeometry x="340" y="2630" width="120" height="30" as="geometry" />
        </mxCell>
        <mxCell id="yDKdm8NmQ3EYVEp2FuNf-81" value="" style="whiteSpace=wrap;html=1;aspect=fixed;fontSize=18;" vertex="1" parent="1">
          <mxGeometry x="200" y="2770" width="400" height="400" as="geometry" />
        </mxCell>
        <mxCell id="yDKdm8NmQ3EYVEp2FuNf-82" value="Book Library&amp;nbsp;&lt;span style=&quot;white-space: pre&quot;&gt;	&lt;span style=&quot;white-space: pre&quot;&gt;	&lt;span style=&quot;white-space: pre&quot;&gt;	&lt;span style=&quot;white-space: pre&quot;&gt;	&lt;span style=&quot;white-space: pre&quot;&gt;	&lt;span style=&quot;white-space: pre&quot;&gt;	&lt;b&gt;X&lt;/b&gt;&lt;/span&gt;&lt;/span&gt;&lt;/span&gt;&lt;/span&gt;&lt;/span&gt;&lt;/span&gt;" style="rounded=0;whiteSpace=wrap;html=1;fontSize=18;" vertex="1" parent="1">
          <mxGeometry x="215" y="2780" width="370" height="30" as="geometry" />
        </mxCell>
        <mxCell id="yDKdm8NmQ3EYVEp2FuNf-83" value="Available Books" style="rounded=0;whiteSpace=wrap;html=1;fontSize=18;" vertex="1" parent="1">
          <mxGeometry x="320" y="2830" width="160" height="30" as="geometry" />
        </mxCell>
      </root>
    </mxGraphModel>
  </diagram>
</mxfile>
